<svg width="18" height="17" viewBox="0 0 18 17" fill="none" xmlns="http://www.w3.org/2000/svg">
<path d="M12.5791 11.0533C12.1924 10.6837 11.6833 10.4916 11.1633 10.5191C10.6432 10.5466 10.1547 10.7915 9.80471 11.2L9.37766 11.7025C9.19628 11.9133 9.0588 12.1621 8.97417 12.4329L8.93588 12.5546L8.82397 12.5078C6.92394 11.7097 5.37011 10.1942 4.46216 8.25363L4.40326 8.12566L4.53285 8.08509C4.87266 7.97435 5.17793 7.76838 5.4164 7.48894L5.84345 6.98955C6.19257 6.57978 6.37381 6.03983 6.3473 5.48845C6.32079 4.93707 6.0887 4.41944 5.70208 4.0494L4.98346 3.35962C4.79237 3.17584 4.56894 3.03383 4.32597 2.94172C4.08301 2.84961 3.82528 2.80921 3.56756 2.82284C3.30983 2.83647 3.05718 2.90385 2.82407 3.02114C2.59096 3.13842 2.38198 3.30329 2.2091 3.50631L1.78205 4.0057C1.72522 4.07123 1.67305 4.14113 1.62596 4.21482L1.60534 4.23979C1.20185 4.60497 0.860211 5.48826 1.05754 6.5838C1.51127 9.06079 2.71013 11.3153 4.47451 13.0096C6.23888 14.7038 8.47377 15.7466 10.8444 15.9817C11.4298 16.0513 12.021 15.9212 12.5319 15.6103C12.7083 15.4947 12.8671 15.3516 13.0032 15.1858L13.4302 14.6833C13.779 14.274 13.9608 13.7351 13.9359 13.1842C13.9111 12.6334 13.6817 12.1153 13.2977 11.7431L12.5791 11.0533ZM8.26438 1C8.14926 1.00979 8.04184 1.06517 7.96352 1.15511C7.88519 1.24505 7.84169 1.36295 7.84169 1.48534C7.84169 1.60774 7.88519 1.72564 7.96352 1.81558C8.04184 1.90552 8.14926 1.9609 8.26438 1.97069C9.80738 1.97234 11.2867 2.62266 12.3778 3.77892C13.4688 4.93519 14.0825 6.50294 14.0841 8.13815C14.0933 8.26015 14.1455 8.37399 14.2304 8.457C14.3153 8.54001 14.4265 8.5861 14.542 8.5861C14.6575 8.5861 14.7688 8.54001 14.8536 8.457C14.9385 8.37399 14.9908 8.26015 15 8.13815C14.9977 6.24575 14.2873 4.43158 13.0246 3.09345C11.7619 1.75533 10.0501 1.00248 8.26438 1Z" fill="white"/>
<path d="M12.0885 7.57652C12.0977 7.69185 12.1497 7.79947 12.2342 7.87795C12.3186 7.95642 12.4293 8 12.5443 8C12.6592 8 12.7699 7.95642 12.8544 7.87795C12.9388 7.79947 12.9908 7.69185 13 7.57652C12.9984 6.36323 12.519 5.20008 11.6669 4.34216C10.8147 3.48423 9.6594 3.00156 8.45428 3C8.39462 3 8.33555 3.01183 8.28043 3.03481C8.22532 3.0578 8.17524 3.09149 8.13305 3.13396C8.09087 3.17643 8.05741 3.22685 8.03458 3.28233C8.01175 3.33782 8 3.3973 8 3.45736C8 3.51742 8.01175 3.57689 8.03458 3.63238C8.05741 3.68787 8.09087 3.73829 8.13305 3.78076C8.17524 3.82323 8.22532 3.85691 8.28043 3.8799C8.33555 3.90288 8.39462 3.91471 8.45428 3.91471C9.41817 3.91628 10.3421 4.30267 11.0234 4.98914C11.7047 5.6756 12.0877 6.6061 12.0885 7.57652Z" fill="white"/>
</svg>