<svg width="34" height="34" viewBox="0 0 34 34" fill="none" xmlns="http://www.w3.org/2000/svg">
<g clip-path="url(#clip0_10_3191)">
<path d="M16.6016 11.9531C16.9681 11.9531 17.2656 11.6556 17.2656 11.2891C17.2656 10.9225 16.9681 10.625 16.6016 10.625C16.235 10.625 15.9375 10.9225 15.9375 11.2891C15.9375 11.6556 16.235 11.9531 16.6016 11.9531Z" fill="#27D4FA"/>
<path d="M16.6016 14.6094C16.9681 14.6094 17.2656 14.3118 17.2656 13.9453C17.2656 13.5788 16.9681 13.2812 16.6016 13.2812C16.235 13.2812 15.9375 13.5788 15.9375 13.9453C15.9375 14.3118 16.235 14.6094 16.6016 14.6094Z" fill="#27D4FA"/>
<path d="M33.8055 6.83517L27.1648 0.19455C27.0473 0.0767822 26.8766 0 26.6953 0H9.96094C8.86238 0 7.96875 0.893631 7.96875 1.99219V4.01498C7.74826 3.99501 7.52647 3.98438 7.30469 3.98438C3.27699 3.98438 0 7.26137 0 11.2891C0 15.3168 3.27699 18.5938 7.30469 18.5938C7.52647 18.5938 7.74826 18.5831 7.96875 18.5631V32.0078C7.96875 33.1064 8.86238 34 9.96094 34H32.0078C33.1064 34 34 33.1064 34 32.0078V7.30469C34 7.12337 33.9245 6.95424 33.8055 6.83517ZM27.3594 2.26715L31.7328 6.64062H27.3594V2.26715ZM7.96875 5.34959C10.7729 5.65906 12.9362 7.89482 13.2429 10.625H7.96875V5.34959ZM1.32812 11.2891C1.32812 8.21803 3.65649 5.68111 6.64062 5.34959V11.2891C6.64062 11.6559 6.9379 11.9523 7.30469 11.9523H13.2429C12.9093 14.923 10.396 17.2656 7.30469 17.2656C4.00928 17.2656 1.32812 14.5845 1.32812 11.2891ZM32.0078 32.6719H9.96094C9.59467 32.6719 9.29688 32.3741 9.29688 32.0078V18.3172C12.4055 17.4373 14.6094 14.5658 14.6094 11.2891C14.6094 8.01233 12.4055 5.14078 9.29688 4.26089V1.99219C9.29688 1.62592 9.59467 1.32812 9.96094 1.32812H26.0312V7.30469C26.0312 7.67148 26.3285 7.96875 26.6953 7.96875H32.6719V32.0078C32.6719 32.3741 32.3741 32.6719 32.0078 32.6719Z" fill="#27D4FA"/>
<path d="M17 5.3125H24.0391C24.4059 5.3125 24.7031 5.01523 24.7031 4.64844C24.7031 4.28165 24.4059 3.98438 24.0391 3.98438H17C16.6332 3.98438 16.3359 4.28165 16.3359 4.64844C16.3359 5.01523 16.6332 5.3125 17 5.3125Z" fill="#27D4FA"/>
<path d="M17 7.96875H24.0391C24.4059 7.96875 24.7031 7.67148 24.7031 7.30469C24.7031 6.9379 24.4059 6.64062 24.0391 6.64062H17C16.6332 6.64062 16.3359 6.9379 16.3359 7.30469C16.3359 7.67148 16.6332 7.96875 17 7.96875Z" fill="#27D4FA"/>
<path d="M7.30469 14.6094C5.47385 14.6094 3.98438 13.1199 3.98438 11.2891C3.98438 10.9223 3.6871 10.625 3.32031 10.625C2.95352 10.625 2.65625 10.9223 2.65625 11.2891C2.65625 13.8522 4.74156 15.9375 7.30469 15.9375C7.67148 15.9375 7.96875 15.6402 7.96875 15.2734C7.96875 14.9066 7.67148 14.6094 7.30469 14.6094Z" fill="#27D4FA"/>
<path d="M29.1523 17.6641C28.0538 17.6641 27.1602 18.5577 27.1602 19.6562C27.1602 20.0679 27.2857 20.451 27.5005 20.7688L22.8891 25.7182C22.7065 25.6629 22.513 25.6328 22.3125 25.6328C22.0323 25.6328 21.7613 25.6909 21.5123 25.8001L19.4352 23.2253C19.5795 22.9465 19.6562 22.6355 19.6562 22.3125C19.6562 21.2139 18.7626 20.3203 17.6641 20.3203C16.5655 20.3203 15.6719 21.2139 15.6719 22.3125C15.6719 22.6227 15.743 22.9218 15.8763 23.1921L13.4548 25.8167C13.1956 25.6964 12.9113 25.6328 12.6172 25.6328C11.5186 25.6328 10.625 26.5264 10.625 27.625C10.625 28.7236 11.5186 29.6172 12.6172 29.6172C13.7157 29.6172 14.6094 28.7236 14.6094 27.625C14.6094 27.3148 14.5386 27.0157 14.405 26.7454L16.8265 24.1208C17.0856 24.2411 17.3699 24.3047 17.6641 24.3047C17.9442 24.3047 18.2153 24.2466 18.4643 24.1374L20.5413 26.7122C20.3971 26.991 20.3203 27.302 20.3203 27.625C20.3203 28.7236 21.2139 29.6172 22.3125 29.6172C23.4111 29.6172 24.3047 28.7236 24.3047 27.625C24.3047 27.2133 24.1791 26.8302 23.9644 26.5124L28.5757 21.5631C28.7583 21.6183 28.9518 21.6484 29.1523 21.6484C30.2509 21.6484 31.1445 20.7548 31.1445 19.6562C31.1445 18.5577 30.2509 17.6641 29.1523 17.6641ZM12.6172 28.2891C12.2509 28.2891 11.9531 27.9913 11.9531 27.625C11.9531 27.2587 12.2509 26.9609 12.6172 26.9609C12.9837 26.9609 13.2812 27.2582 13.2812 27.625C13.2812 27.9913 12.9835 28.2891 12.6172 28.2891ZM17 22.3125C17 21.9462 17.2978 21.6484 17.6641 21.6484C18.0303 21.6484 18.3281 21.9462 18.3281 22.3125C18.3281 22.679 18.0309 22.9766 17.6641 22.9766C17.2973 22.9766 17 22.679 17 22.3125ZM22.3125 28.2891C21.9462 28.2891 21.6484 27.9913 21.6484 27.625C21.6484 27.2585 21.9457 26.9609 22.3125 26.9609C22.6788 26.9609 22.9766 27.2587 22.9766 27.625C22.9766 27.9913 22.6788 28.2891 22.3125 28.2891ZM29.1523 20.3203C28.7861 20.3203 28.4883 20.0225 28.4883 19.6562C28.4883 19.29 28.7861 18.9922 29.1523 18.9922C29.5186 18.9922 29.8164 19.29 29.8164 19.6562C29.8164 20.0225 29.5186 20.3203 29.1523 20.3203Z" fill="#27D4FA"/>
<path d="M18.5938 11.2891C18.5938 11.6559 18.891 11.9531 19.2578 11.9531H29.3516C29.7184 11.9531 30.0156 11.6559 30.0156 11.2891C30.0156 10.9223 29.7184 10.625 29.3516 10.625H19.2578C18.891 10.625 18.5938 10.9223 18.5938 11.2891Z" fill="#27D4FA"/>
<path d="M29.3516 13.2812H19.2578C18.891 13.2812 18.5938 13.5785 18.5938 13.9453C18.5938 14.3121 18.891 14.6094 19.2578 14.6094H29.3516C29.7184 14.6094 30.0156 14.3121 30.0156 13.9453C30.0156 13.5785 29.7184 13.2812 29.3516 13.2812Z" fill="#27D4FA"/>
</g>
<defs>
<clipPath id="clip0_10_3191">
<rect width="34" height="34" fill="white"/>
</clipPath>
</defs>
</svg>
