<svg width="18" height="18" viewBox="0 0 18 18" fill="none" xmlns="http://www.w3.org/2000/svg">
<path d="M12.5303 5.553C12.3885 5.412 12.1943 5.34075 12 5.34075C11.8057 5.34075 11.6115 5.412 11.4698 5.553L9.75 7.27275V2.25C9.75 2.05109 9.67098 1.86032 9.53033 1.71967C9.38968 1.57902 9.19891 1.5 9 1.5C8.80109 1.5 8.61032 1.57902 8.46967 1.71967C8.32902 1.86032 8.25 2.05109 8.25 2.25V7.27275L6.53025 5.553C6.46076 5.48311 6.37814 5.42765 6.28714 5.3898C6.19614 5.35196 6.09856 5.33247 6 5.33247C5.90144 5.33247 5.80386 5.35196 5.71286 5.3898C5.62186 5.42765 5.53924 5.48311 5.46975 5.553C5.32915 5.69365 5.25016 5.88438 5.25016 6.08325C5.25016 6.28212 5.32915 6.47285 5.46975 6.6135L9 10.125L12.5317 6.612C12.6717 6.47122 12.7501 6.2807 12.7498 6.08219C12.7496 5.88368 12.6706 5.69339 12.5303 5.553ZM15.7402 12C15.7435 11.9199 15.7336 11.8399 15.711 11.763L14.211 7.263C14.1615 7.11359 14.0661 6.9836 13.9385 6.8915C13.8108 6.79941 13.6574 6.74989 13.5 6.75H13.3358C13.2653 6.891 13.1782 7.026 13.0605 7.14375L11.949 8.25H12.96L14.2103 12H3.7905L5.04075 8.25H6.05175L4.9395 7.14375C4.82678 7.02848 4.73379 6.89546 4.66425 6.75H4.5C4.3426 6.74989 4.18917 6.79941 4.06153 6.8915C3.93388 6.9836 3.83852 7.11359 3.789 7.263L2.289 11.763C2.2664 11.8399 2.25652 11.9199 2.25975 12C2.25 12 2.25 15.75 2.25 15.75C2.25 15.9489 2.32902 16.1397 2.46967 16.2803C2.61032 16.421 2.80109 16.5 3 16.5H15C15.1989 16.5 15.3897 16.421 15.5303 16.2803C15.671 16.1397 15.75 15.9489 15.75 15.75C15.75 15.75 15.75 12 15.7402 12Z" fill="white"/>
</svg>