<svg width="27" height="27" viewBox="0 0 27 27" fill="none" xmlns="http://www.w3.org/2000/svg">
<g clip-path="url(#clip0_455_2936)">
<path fill-rule="evenodd" clip-rule="evenodd" d="M11.459 24.922C5.13821 24.922 0 19.7837 0 13.4629C0 7.14217 5.13821 2.00391 11.459 2.00391C14.6409 2.00391 17.6078 3.27238 19.8007 5.59424C19.9116 5.71925 19.8993 5.85925 19.8284 5.96103L20.501 6.84009C20.6292 6.77478 20.7958 6.78826 20.8972 6.94863C22.2302 8.86206 22.9182 11.1195 22.9182 13.4629C22.9181 19.7837 17.7798 24.922 11.459 24.922ZM11.459 22.5571C6.44967 22.5571 2.36486 18.4722 2.36486 13.4629C2.36486 8.45363 6.44967 4.36876 11.459 4.36876C13.8453 4.36876 16.1028 5.29319 17.8012 6.94869C17.9378 7.08345 17.9165 7.24425 17.8277 7.35243L18.6791 8.40912C18.809 8.33314 18.9885 8.34046 19.0911 8.49662C22.9562 14.3783 18.7617 22.5571 11.459 22.5571Z" fill="#04A12E"/>
<path fill-rule="evenodd" clip-rule="evenodd" d="M11.7591 19.3551C11.6301 19.3551 11.5226 19.2691 11.4796 19.1616C11.4582 19.1186 9.6092 14.3458 6.74981 12.5399C6.19083 12.1959 5.76093 11.8304 5.93289 11.0134C6.10485 10.2179 6.64237 9.76645 7.60979 9.55144C9.32968 9.18593 11.1786 11.8518 11.8666 12.9484C14.2745 9.44399 19.0903 3.94016 26.099 3.29519C26.4371 3.25556 26.5621 3.75674 26.2495 3.89717C26.142 3.94016 16.1233 8.51956 12.06 19.1831C11.9956 19.2906 11.8881 19.3551 11.7591 19.3551Z" fill="#00B42C"/>
</g>
<defs>
<clipPath id="clip0_455_2936">
<rect width="26.4336" height="26.4336" fill="white" transform="translate(0 0.25)"/>
</clipPath>
</defs>
</svg>
