<svg width="18" height="16" viewBox="0 0 18 16" fill="none" xmlns="http://www.w3.org/2000/svg">
<path d="M7 7.66667C5.162 7.66667 3.66667 6.17133 3.66667 4.33333C3.66667 2.49533 5.162 1 7 1C8.838 1 10.3333 2.49533 10.3333 4.33333C10.3333 6.17133 8.838 7.66667 7 7.66667ZM7 2C5.71333 2 4.66667 3.04667 4.66667 4.33333C4.66667 5.62 5.71333 6.66667 7 6.66667C8.28667 6.66667 9.33333 5.62 9.33333 4.33333C9.33333 3.04667 8.28667 2 7 2ZM12.5 15H1.5C1.224 15 1 14.776 1 14.5V12.1667C1 10.4207 2.42067 9 4.16667 9H9.83333C11.5793 9 13 10.4207 13 12.1667V14.5C13 14.776 12.776 15 12.5 15ZM2 14H12V12.1667C12 10.972 11.028 10 9.83333 10H4.16667C2.972 10 2 10.972 2 12.1667V14ZM16.5 7.83333H10.8333C10.5573 7.83333 10.3333 7.60933 10.3333 7.33333C10.3333 7.05733 10.5573 6.83333 10.8333 6.83333H16.5C16.776 6.83333 17 7.05733 17 7.33333C17 7.60933 16.776 7.83333 16.5 7.83333Z" fill="white" stroke="white" stroke-width="0.5"/>
<path d="M13.5452 10C13.4056 10 13.266 9.9539 13.1598 9.86108C12.9467 9.67606 12.9467 9.37611 13.1598 9.1911L15.6832 6.99992L13.1598 4.80875C12.9467 4.62373 12.9467 4.32378 13.1598 4.13876C13.3729 3.95375 13.7183 3.95375 13.9314 4.13876L16.8402 6.66461C17.0533 6.84963 17.0533 7.14958 16.8402 7.3346L13.9314 9.86045C13.8245 9.9539 13.6848 10 13.5452 10Z" fill="white" stroke="white" stroke-width="0.5"/>
</svg>