<svg width="50" height="50" viewBox="0 0 50 50" fill="none" xmlns="http://www.w3.org/2000/svg">
<path d="M38.5592 10.9415H46.1872C46.0173 10.0739 45.5835 9.28711 44.9217 8.67608L38.5026 2.74226C37.9585 2.23564 37.2967 1.88932 36.5835 1.73564C36.5835 1.52432 36.5835 8.72255 36.5835 8.96579C36.5835 10.0562 37.4681 10.9415 38.5592 10.9415Z" fill="#2AD5FA"/>
<path d="M7.96619 21.9816L4.74561 26.658H7.96619V21.9816Z" fill="#E2F1F1"/>
<path d="M38.562 12.4155C36.6576 12.4155 35.1135 10.864 35.1135 8.96693V1.62134H13.6282C11.312 1.62134 9.43701 3.49634 9.43701 5.81987V26.6581H35.7017C37.6208 26.6581 39.1797 28.2169 39.1797 30.136V41.2169C39.1797 43.136 37.6208 44.6949 35.7017 44.6949H9.47378C9.71642 46.7758 11.4811 48.3786 13.6282 48.3786H42.0767C44.3929 48.3786 46.2679 46.5036 46.2679 44.1874V12.4154L38.562 12.4155ZM14.7026 7.51457H30.3825C30.7886 7.51457 31.1178 7.84347 31.1178 8.24987C31.1178 8.65626 30.7886 8.98516 30.3825 8.98516H14.7026C14.2966 8.98516 13.9673 8.65626 13.9673 8.24987C13.9673 7.84347 14.2965 7.51457 14.7026 7.51457ZM14.7026 12.8541H33.9444C34.3505 12.8541 34.6797 13.183 34.6797 13.5894C34.6797 13.9958 34.3505 14.3247 33.9444 14.3247H14.7026C14.2966 14.3247 13.9673 13.9958 13.9673 13.5894C13.9673 13.183 14.2965 12.8541 14.7026 12.8541ZM21.5924 25.0037H14.7026C14.2966 25.0037 13.9673 24.6748 13.9673 24.2684C13.9673 23.862 14.2966 23.5331 14.7026 23.5331H21.5924C21.9984 23.5331 22.3277 23.862 22.3277 24.2684C22.3277 24.6748 21.9984 25.0037 21.5924 25.0037ZM40.7854 25.0037H25.3148C24.9088 25.0037 24.5795 24.6748 24.5795 24.2684C24.5795 23.862 24.9088 23.5331 25.3148 23.5331H40.7854C41.1914 23.5331 41.5207 23.862 41.5207 24.2684C41.5207 24.6748 41.1915 25.0037 40.7854 25.0037ZM40.7854 19.6642H14.7026C14.2966 19.6642 13.9673 19.3353 13.9673 18.9289C13.9673 18.5225 14.2966 18.1936 14.7026 18.1936H40.7855C41.1915 18.1936 41.5208 18.5225 41.5208 18.9289C41.5208 19.3353 41.1915 19.6642 40.7854 19.6642Z" fill="#E2F1F1"/>
<path d="M12.8974 32.7968H11.3809V35.2288H12.8974C13.5681 35.2288 14.1138 34.6776 14.1138 34.0124C14.1138 33.3418 13.5681 32.7968 12.8974 32.7968Z" fill="#2AD5FA"/>
<path d="M18.9668 32.7982V38.557C20.4878 38.5157 21.7676 37.2757 21.7676 35.6798C21.7676 34.1173 20.5185 32.8413 18.9668 32.7982Z" fill="#2AD5FA"/>
<path d="M37.7084 41.217V30.1376C37.7084 29.028 36.8099 28.1295 35.7003 28.1295H3.73193V41.217C3.73193 42.3258 4.6312 43.2251 5.74076 43.2251H35.7002C36.8099 43.2251 37.7084 42.3258 37.7084 41.217ZM12.8975 36.6994H11.381V39.1322C11.381 39.5386 11.0517 39.8675 10.6457 39.8675C10.2397 39.8675 9.91039 39.5386 9.91039 39.1322V35.973C9.91032 35.9699 9.90863 35.9673 9.90863 35.9642V32.0615C9.90863 31.7564 10.0944 31.495 10.3588 31.3837C10.4469 31.3463 10.5439 31.3255 10.6458 31.3255C10.647 31.3255 10.648 31.3262 10.6493 31.3262H12.8976C14.3793 31.3262 15.5846 32.5311 15.5846 34.0125C15.5845 35.4791 14.3903 36.6994 12.8975 36.6994ZM18.8847 40.0291H18.2316C17.8256 40.0291 17.4963 39.7002 17.4963 39.2938V32.0615C17.4963 31.6551 17.8256 31.3262 18.2316 31.3262H18.8847C21.2852 31.3262 23.2383 33.2794 23.2383 35.6798C23.2383 38.0939 21.2816 40.0291 18.8847 40.0291ZM30.7966 34.9488C31.2027 34.9488 31.5319 35.2777 31.5319 35.6841C31.5319 36.0905 31.2027 36.4194 30.7966 36.4194H27.6278V39.1322C27.6278 39.5386 27.2986 39.8675 26.8925 39.8675C26.4865 39.8675 26.1572 39.5386 26.1572 39.1322V32.0608C26.1572 31.6544 26.4865 31.3255 26.8925 31.3255C26.8938 31.3255 26.8948 31.3262 26.8961 31.3262H30.7966C31.2026 31.3262 31.5319 31.6551 31.5319 32.0615C31.5319 32.4679 31.2026 32.7968 30.7966 32.7968H27.6288V34.9489L30.7966 34.9488Z" fill="#2AD5FA"/>
</svg>
