<svg width="40" height="60" viewBox="0 0 40 60" fill="none" xmlns="http://www.w3.org/2000/svg">
<path d="M0 0H40V60L19.6552 46.5217L0 60V0Z" fill="#5E93FF"/>
<path d="M12.5 11.7324V26H10.1465V14.5254L6.66016 15.707V13.7637L12.2168 11.7324H12.5ZM20.5508 17.2656C20.5508 17.1328 20.5156 17.0137 20.4453 16.9082C20.375 16.8027 20.2422 16.707 20.0469 16.6211C19.8555 16.5312 19.5742 16.4473 19.2031 16.3691C18.875 16.2988 18.5723 16.2109 18.2949 16.1055C18.0176 16 17.7793 15.873 17.5801 15.7246C17.3809 15.5723 17.2246 15.3945 17.1113 15.1914C17.002 14.9844 16.9473 14.7461 16.9473 14.4766C16.9473 14.2148 17.0039 13.9688 17.1172 13.7383C17.2305 13.5039 17.3945 13.2988 17.6094 13.123C17.8242 12.9434 18.0859 12.8027 18.3945 12.7012C18.7031 12.5957 19.0508 12.543 19.4375 12.543C19.9766 12.543 20.4395 12.6309 20.8262 12.8066C21.2168 12.9824 21.5156 13.2246 21.7227 13.5332C21.9297 13.8379 22.0332 14.1816 22.0332 14.5645H20.4863C20.4863 14.3965 20.4473 14.2441 20.3691 14.1074C20.2949 13.9707 20.1797 13.8613 20.0234 13.7793C19.8672 13.6934 19.6699 13.6504 19.4316 13.6504C19.2168 13.6504 19.0352 13.6855 18.8867 13.7559C18.7422 13.8262 18.6328 13.918 18.5586 14.0312C18.4844 14.1445 18.4473 14.2695 18.4473 14.4062C18.4473 14.5078 18.4668 14.5996 18.5059 14.6816C18.5488 14.7598 18.6172 14.832 18.7109 14.8984C18.8047 14.9648 18.9316 15.0254 19.0918 15.0801C19.2559 15.1348 19.457 15.1875 19.6953 15.2383C20.168 15.332 20.5801 15.457 20.9316 15.6133C21.2871 15.7656 21.5645 15.9688 21.7637 16.2227C21.9629 16.4766 22.0625 16.8008 22.0625 17.1953C22.0625 17.4766 22.002 17.7344 21.8809 17.9688C21.7598 18.1992 21.584 18.4004 21.3535 18.5723C21.123 18.7441 20.8477 18.8789 20.5273 18.9766C20.207 19.0703 19.8457 19.1172 19.4434 19.1172C18.8613 19.1172 18.3691 19.0137 17.9668 18.8066C17.5645 18.5957 17.2598 18.3301 17.0527 18.0098C16.8457 17.6855 16.7422 17.3496 16.7422 17.002H18.2246C18.2363 17.248 18.3027 17.4453 18.4238 17.5938C18.5449 17.7422 18.6973 17.8496 18.8809 17.916C19.0684 17.9785 19.2656 18.0098 19.4727 18.0098C19.707 18.0098 19.9043 17.9785 20.0645 17.916C20.2246 17.8496 20.3457 17.7617 20.4277 17.6523C20.5098 17.5391 20.5508 17.4102 20.5508 17.2656ZM26.6002 12.6602V13.7734H22.9674V12.6602H26.6002ZM23.9401 11.1016H25.4928V17.1719C25.4928 17.3594 25.5182 17.5039 25.569 17.6055C25.6198 17.707 25.6959 17.7754 25.7975 17.8105C25.8991 17.8457 26.0202 17.8633 26.1608 17.8633C26.2623 17.8633 26.3561 17.8574 26.442 17.8457C26.528 17.834 26.6002 17.8223 26.6588 17.8105L26.6647 18.9707C26.5358 19.0137 26.3893 19.0488 26.2252 19.0762C26.0651 19.1035 25.8834 19.1172 25.6803 19.1172C25.3327 19.1172 25.028 19.0586 24.7663 18.9414C24.5045 18.8203 24.3014 18.627 24.1569 18.3613C24.0123 18.0918 23.9401 17.7363 23.9401 17.2949V11.1016Z" fill="white"/>
<path d="M12.6143 37.2031C12.6143 37.0371 12.5882 36.8906 12.5361 36.7637C12.4873 36.6335 12.3994 36.5163 12.2725 36.4121C12.1488 36.3079 11.9762 36.2087 11.7549 36.1143C11.5368 36.0199 11.2601 35.9238 10.9248 35.8262C10.5732 35.722 10.2559 35.6064 9.97266 35.4795C9.68945 35.3493 9.44694 35.2012 9.24512 35.0352C9.04329 34.8691 8.88867 34.6787 8.78125 34.4639C8.67383 34.249 8.62012 34.0033 8.62012 33.7266C8.62012 33.4499 8.67708 33.1943 8.79102 32.96C8.90495 32.7256 9.06771 32.5221 9.2793 32.3496C9.49414 32.1738 9.74967 32.0371 10.0459 31.9395C10.3421 31.8418 10.6725 31.793 11.0371 31.793C11.571 31.793 12.0234 31.8955 12.3945 32.1006C12.7689 32.3024 13.0537 32.5677 13.249 32.8965C13.4443 33.222 13.542 33.5703 13.542 33.9414H12.6045C12.6045 33.6745 12.5475 33.4385 12.4336 33.2334C12.3197 33.0251 12.1471 32.8623 11.916 32.7451C11.6849 32.6247 11.3919 32.5645 11.0371 32.5645C10.7018 32.5645 10.4251 32.6149 10.207 32.7158C9.98893 32.8167 9.82617 32.9535 9.71875 33.126C9.61458 33.2985 9.5625 33.4954 9.5625 33.7168C9.5625 33.8665 9.59342 34.0033 9.65527 34.127C9.72038 34.2474 9.81966 34.3597 9.95312 34.4639C10.0898 34.568 10.2624 34.6641 10.4707 34.752C10.6823 34.8398 10.9346 34.9245 11.2275 35.0059C11.6312 35.1198 11.9795 35.2467 12.2725 35.3867C12.5654 35.5267 12.8063 35.6846 12.9951 35.8604C13.1872 36.0329 13.3288 36.2298 13.4199 36.4512C13.5143 36.6693 13.5615 36.9167 13.5615 37.1934C13.5615 37.4831 13.5029 37.7451 13.3857 37.9795C13.2686 38.2139 13.1009 38.4141 12.8828 38.5801C12.6647 38.7461 12.4027 38.8747 12.0967 38.9658C11.7939 39.0537 11.4554 39.0977 11.0811 39.0977C10.7523 39.0977 10.4284 39.0521 10.1094 38.9609C9.79362 38.8698 9.50553 38.7331 9.24512 38.5508C8.98796 38.3685 8.78125 38.1439 8.625 37.877C8.47201 37.6068 8.39551 37.2943 8.39551 36.9395H9.33301C9.33301 37.1836 9.38021 37.3936 9.47461 37.5693C9.56901 37.7419 9.69759 37.8851 9.86035 37.999C10.0264 38.113 10.2135 38.1976 10.4219 38.2529C10.6335 38.305 10.8532 38.3311 11.0811 38.3311C11.4098 38.3311 11.6882 38.2855 11.916 38.1943C12.1439 38.1032 12.3164 37.973 12.4336 37.8037C12.554 37.6344 12.6143 37.4342 12.6143 37.2031ZM17.3896 31.8906V39H16.4619V31.8906H17.3896ZM19.6748 31.8906V32.6621H14.1816V31.8906H19.6748ZM25.2461 38.2334V39H21.4814V38.2334H25.2461ZM21.6719 31.8906V39H20.7295V31.8906H21.6719ZM24.748 34.9473V35.7139H21.4814V34.9473H24.748ZM25.1973 31.8906V32.6621H21.4814V31.8906H25.1973ZM29.0352 36.2119H27.1357V35.4453H29.0352C29.403 35.4453 29.7008 35.3867 29.9287 35.2695C30.1566 35.1523 30.3226 34.9896 30.4268 34.7812C30.5342 34.5729 30.5879 34.3353 30.5879 34.0684C30.5879 33.8242 30.5342 33.5947 30.4268 33.3799C30.3226 33.165 30.1566 32.9925 29.9287 32.8623C29.7008 32.7288 29.403 32.6621 29.0352 32.6621H27.3555V39H26.4131V31.8906H29.0352C29.5723 31.8906 30.0264 31.9834 30.3975 32.1689C30.7686 32.3545 31.0501 32.6117 31.2422 32.9404C31.4342 33.266 31.5303 33.6387 31.5303 34.0586C31.5303 34.5143 31.4342 34.9033 31.2422 35.2256C31.0501 35.5479 30.7686 35.7936 30.3975 35.9629C30.0264 36.1289 29.5723 36.2119 29.0352 36.2119Z" fill="white"/>
</svg>
