<svg width="40" height="60" viewBox="0 0 40 60" fill="none" xmlns="http://www.w3.org/2000/svg">
<path d="M0 0H40V60L19.6552 46.5217L0 60V0Z" fill="#50B167"/>
<path d="M11.8379 17.8262H13.2441C13.791 17.8262 14.2435 17.7318 14.6016 17.543C14.9661 17.3542 15.2363 17.0938 15.4121 16.7617C15.5879 16.4297 15.6758 16.0488 15.6758 15.6191C15.6758 15.1699 15.5944 14.7858 15.4316 14.4668C15.2754 14.1413 15.0345 13.8906 14.709 13.7148C14.39 13.5391 13.9831 13.4512 13.4883 13.4512C13.0716 13.4512 12.694 13.5358 12.3555 13.7051C12.0234 13.8678 11.7598 14.1022 11.5645 14.4082C11.3691 14.7077 11.2715 15.0658 11.2715 15.4824H8.9082C8.9082 14.7272 9.10677 14.0566 9.50391 13.4707C9.90104 12.8848 10.4414 12.4258 11.125 12.0938C11.8151 11.7552 12.5898 11.5859 13.4492 11.5859C14.3672 11.5859 15.168 11.7389 15.8516 12.0449C16.5417 12.3444 17.0788 12.7936 17.4629 13.3926C17.847 13.9915 18.0391 14.7337 18.0391 15.6191C18.0391 16.0228 17.9447 16.4329 17.7559 16.8496C17.5671 17.2663 17.2871 17.6471 16.916 17.9922C16.5449 18.3307 16.0827 18.6074 15.5293 18.8223C14.9759 19.0306 14.3346 19.1348 13.6055 19.1348H11.8379V17.8262ZM11.8379 19.6621V18.373H13.6055C14.4388 18.373 15.1484 18.4707 15.7344 18.666C16.3268 18.8613 16.8086 19.1315 17.1797 19.4766C17.5508 19.8151 17.821 20.2025 17.9902 20.6387C18.166 21.0749 18.2539 21.5371 18.2539 22.0254C18.2539 22.6895 18.1335 23.2819 17.8926 23.8027C17.6582 24.3171 17.3229 24.7533 16.8867 25.1113C16.4505 25.4694 15.9395 25.7396 15.3535 25.9219C14.7741 26.1042 14.1426 26.1953 13.459 26.1953C12.847 26.1953 12.2611 26.1107 11.7012 25.9414C11.1413 25.7721 10.64 25.5215 10.1973 25.1895C9.75456 24.8509 9.40299 24.431 9.14258 23.9297C8.88867 23.4219 8.76172 22.8359 8.76172 22.1719H11.1152C11.1152 22.5951 11.2129 22.9694 11.4082 23.2949C11.61 23.6139 11.89 23.8646 12.248 24.0469C12.6126 24.2292 13.0293 24.3203 13.498 24.3203C13.9928 24.3203 14.4193 24.2324 14.7773 24.0566C15.1354 23.8809 15.4089 23.6204 15.5977 23.2754C15.793 22.9303 15.8906 22.5137 15.8906 22.0254C15.8906 21.472 15.7832 21.0228 15.5684 20.6777C15.3535 20.3327 15.0475 20.0788 14.6504 19.916C14.2533 19.7467 13.7845 19.6621 13.2441 19.6621H11.8379ZM21.6113 13.9551V19H20.0645V12.6602H21.5293L21.6113 13.9551ZM23.5391 12.6191L23.5156 14.0605C23.4297 14.0449 23.332 14.0332 23.2227 14.0254C23.1172 14.0176 23.0176 14.0137 22.9238 14.0137C22.6855 14.0137 22.4766 14.0469 22.2969 14.1133C22.1172 14.1758 21.9668 14.2676 21.8457 14.3887C21.7285 14.5098 21.6387 14.6582 21.5762 14.834C21.5137 15.0059 21.4785 15.2012 21.4707 15.4199L21.1367 15.3789C21.1367 14.9766 21.1777 14.6035 21.2598 14.2598C21.3418 13.916 21.4609 13.6152 21.6172 13.3574C21.7734 13.0996 21.9688 12.9004 22.2031 12.7598C22.4414 12.6152 22.7148 12.543 23.0234 12.543C23.1094 12.543 23.2012 12.5508 23.2988 12.5664C23.4004 12.5781 23.4805 12.5957 23.5391 12.6191ZM28.4342 17.6523V10H29.9928V19H28.5866L28.4342 17.6523ZM24.362 15.9062V15.7832C24.362 15.2988 24.4166 14.8594 24.526 14.4648C24.6393 14.0664 24.8034 13.7246 25.0182 13.4395C25.233 13.1543 25.4928 12.9336 25.7975 12.7773C26.1061 12.6211 26.4557 12.543 26.8463 12.543C27.2252 12.543 27.5553 12.6191 27.8366 12.7715C28.1217 12.9238 28.3639 13.1406 28.5631 13.4219C28.7662 13.7031 28.9284 14.0371 29.0495 14.4238C29.1705 14.8066 29.2584 15.2285 29.3131 15.6895V16.0234C29.2584 16.4727 29.1705 16.8848 29.0495 17.2598C28.9284 17.6348 28.7662 17.9629 28.5631 18.2441C28.3639 18.5215 28.1217 18.7363 27.8366 18.8887C27.5514 19.041 27.2174 19.1172 26.8346 19.1172C26.4479 19.1172 26.1002 19.0371 25.7916 18.877C25.487 18.7168 25.2272 18.4922 25.0123 18.2031C24.8014 17.9141 24.6393 17.5742 24.526 17.1836C24.4166 16.793 24.362 16.3672 24.362 15.9062ZM25.9147 15.7832V15.9062C25.9147 16.1797 25.9381 16.4355 25.985 16.6738C26.0319 16.9121 26.108 17.123 26.2135 17.3066C26.319 17.4863 26.4537 17.627 26.6178 17.7285C26.7858 17.8301 26.9889 17.8809 27.2272 17.8809C27.5319 17.8809 27.7819 17.8145 27.9772 17.6816C28.1764 17.5449 28.3307 17.3594 28.4401 17.125C28.5495 16.8867 28.6198 16.6191 28.651 16.3223V15.4023C28.6354 15.168 28.5944 14.9512 28.528 14.752C28.4655 14.5527 28.3756 14.3809 28.2584 14.2363C28.1452 14.0918 28.0045 13.9785 27.8366 13.8965C27.6686 13.8145 27.4694 13.7734 27.2389 13.7734C27.0006 13.7734 26.7975 13.8262 26.6295 13.9316C26.4616 14.0332 26.3248 14.1758 26.2194 14.3594C26.1139 14.543 26.0358 14.7559 25.985 14.998C25.9381 15.2402 25.9147 15.502 25.9147 15.7832Z" fill="white"/>
<path d="M12.6143 37.2031C12.6143 37.0371 12.5882 36.8906 12.5361 36.7637C12.4873 36.6335 12.3994 36.5163 12.2725 36.4121C12.1488 36.3079 11.9762 36.2087 11.7549 36.1143C11.5368 36.0199 11.2601 35.9238 10.9248 35.8262C10.5732 35.722 10.2559 35.6064 9.97266 35.4795C9.68945 35.3493 9.44694 35.2012 9.24512 35.0352C9.04329 34.8691 8.88867 34.6787 8.78125 34.4639C8.67383 34.249 8.62012 34.0033 8.62012 33.7266C8.62012 33.4499 8.67708 33.1943 8.79102 32.96C8.90495 32.7256 9.06771 32.5221 9.2793 32.3496C9.49414 32.1738 9.74967 32.0371 10.0459 31.9395C10.3421 31.8418 10.6725 31.793 11.0371 31.793C11.571 31.793 12.0234 31.8955 12.3945 32.1006C12.7689 32.3024 13.0537 32.5677 13.249 32.8965C13.4443 33.222 13.542 33.5703 13.542 33.9414H12.6045C12.6045 33.6745 12.5475 33.4385 12.4336 33.2334C12.3197 33.0251 12.1471 32.8623 11.916 32.7451C11.6849 32.6247 11.3919 32.5645 11.0371 32.5645C10.7018 32.5645 10.4251 32.6149 10.207 32.7158C9.98893 32.8167 9.82617 32.9535 9.71875 33.126C9.61458 33.2985 9.5625 33.4954 9.5625 33.7168C9.5625 33.8665 9.59342 34.0033 9.65527 34.127C9.72038 34.2474 9.81966 34.3597 9.95312 34.4639C10.0898 34.568 10.2624 34.6641 10.4707 34.752C10.6823 34.8398 10.9346 34.9245 11.2275 35.0059C11.6312 35.1198 11.9795 35.2467 12.2725 35.3867C12.5654 35.5267 12.8063 35.6846 12.9951 35.8604C13.1872 36.0329 13.3288 36.2298 13.4199 36.4512C13.5143 36.6693 13.5615 36.9167 13.5615 37.1934C13.5615 37.4831 13.5029 37.7451 13.3857 37.9795C13.2686 38.2139 13.1009 38.4141 12.8828 38.5801C12.6647 38.7461 12.4027 38.8747 12.0967 38.9658C11.7939 39.0537 11.4554 39.0977 11.0811 39.0977C10.7523 39.0977 10.4284 39.0521 10.1094 38.9609C9.79362 38.8698 9.50553 38.7331 9.24512 38.5508C8.98796 38.3685 8.78125 38.1439 8.625 37.877C8.47201 37.6068 8.39551 37.2943 8.39551 36.9395H9.33301C9.33301 37.1836 9.38021 37.3936 9.47461 37.5693C9.56901 37.7419 9.69759 37.8851 9.86035 37.999C10.0264 38.113 10.2135 38.1976 10.4219 38.2529C10.6335 38.305 10.8532 38.3311 11.0811 38.3311C11.4098 38.3311 11.6882 38.2855 11.916 38.1943C12.1439 38.1032 12.3164 37.973 12.4336 37.8037C12.554 37.6344 12.6143 37.4342 12.6143 37.2031ZM17.3896 31.8906V39H16.4619V31.8906H17.3896ZM19.6748 31.8906V32.6621H14.1816V31.8906H19.6748ZM25.2461 38.2334V39H21.4814V38.2334H25.2461ZM21.6719 31.8906V39H20.7295V31.8906H21.6719ZM24.748 34.9473V35.7139H21.4814V34.9473H24.748ZM25.1973 31.8906V32.6621H21.4814V31.8906H25.1973ZM29.0352 36.2119H27.1357V35.4453H29.0352C29.403 35.4453 29.7008 35.3867 29.9287 35.2695C30.1566 35.1523 30.3226 34.9896 30.4268 34.7812C30.5342 34.5729 30.5879 34.3353 30.5879 34.0684C30.5879 33.8242 30.5342 33.5947 30.4268 33.3799C30.3226 33.165 30.1566 32.9925 29.9287 32.8623C29.7008 32.7288 29.403 32.6621 29.0352 32.6621H27.3555V39H26.4131V31.8906H29.0352C29.5723 31.8906 30.0264 31.9834 30.3975 32.1689C30.7686 32.3545 31.0501 32.6117 31.2422 32.9404C31.4342 33.266 31.5303 33.6387 31.5303 34.0586C31.5303 34.5143 31.4342 34.9033 31.2422 35.2256C31.0501 35.5479 30.7686 35.7936 30.3975 35.9629C30.0264 36.1289 29.5723 36.2119 29.0352 36.2119Z" fill="white"/>
</svg>
