<svg width="40" height="60" viewBox="0 0 40 60" fill="none" xmlns="http://www.w3.org/2000/svg">
<path d="M0 0H40V60L19.6552 46.5217L0 60V0Z" fill="#FFBC00"/>
<path d="M17.6055 24.125V26H8.07422V24.3887L12.7031 19.3398C13.2109 18.7669 13.6113 18.2721 13.9043 17.8555C14.1973 17.4388 14.4023 17.0645 14.5195 16.7324C14.6432 16.3939 14.7051 16.0651 14.7051 15.7461C14.7051 15.2969 14.6204 14.903 14.4512 14.5645C14.2884 14.2194 14.0475 13.9492 13.7285 13.7539C13.4095 13.5521 13.0221 13.4512 12.5664 13.4512C12.0391 13.4512 11.5964 13.5651 11.2383 13.793C10.8802 14.0208 10.61 14.3366 10.4277 14.7402C10.2454 15.1374 10.1543 15.5931 10.1543 16.1074H7.80078C7.80078 15.2806 7.98958 14.5254 8.36719 13.8418C8.74479 13.1517 9.29167 12.6048 10.0078 12.2012C10.724 11.791 11.5866 11.5859 12.5957 11.5859C13.5462 11.5859 14.3535 11.7454 15.0176 12.0645C15.6816 12.3835 16.1862 12.8359 16.5312 13.4219C16.8828 14.0078 17.0586 14.7012 17.0586 15.502C17.0586 15.9447 16.987 16.3841 16.8438 16.8203C16.7005 17.2565 16.4954 17.6927 16.2285 18.1289C15.9681 18.5586 15.6589 18.9915 15.3008 19.4277C14.9427 19.8574 14.5488 20.2936 14.1191 20.7363L11.043 24.125H17.6055ZM20.582 14.0137V19H19.0352V12.6602H20.4883L20.582 14.0137ZM20.3359 15.6016H19.8789C19.8828 15.1406 19.9453 14.7227 20.0664 14.3477C20.1875 13.9727 20.3574 13.6504 20.5762 13.3809C20.7988 13.1113 21.0625 12.9043 21.3672 12.7598C21.6719 12.6152 22.0117 12.543 22.3867 12.543C22.6914 12.543 22.9668 12.5859 23.2129 12.6719C23.459 12.7578 23.6699 12.8945 23.8457 13.082C24.0254 13.2695 24.1621 13.5156 24.2559 13.8203C24.3535 14.1211 24.4023 14.4922 24.4023 14.9336V19H22.8438V14.9219C22.8438 14.6328 22.8008 14.4043 22.7148 14.2363C22.6328 14.0684 22.5117 13.9492 22.3516 13.8789C22.1953 13.8086 22.002 13.7734 21.7715 13.7734C21.5332 13.7734 21.3242 13.8223 21.1445 13.9199C20.9688 14.0137 20.8203 14.1445 20.6992 14.3125C20.582 14.4805 20.4922 14.6738 20.4297 14.8926C20.3672 15.1113 20.3359 15.3477 20.3359 15.6016ZM29.9303 17.6523V10H31.4889V19H30.0827L29.9303 17.6523ZM25.858 15.9062V15.7832C25.858 15.2988 25.9127 14.8594 26.0221 14.4648C26.1354 14.0664 26.2995 13.7246 26.5143 13.4395C26.7291 13.1543 26.9889 12.9336 27.2936 12.7773C27.6022 12.6211 27.9518 12.543 28.3424 12.543C28.7213 12.543 29.0514 12.6191 29.3327 12.7715C29.6178 12.9238 29.86 13.1406 30.0592 13.4219C30.2623 13.7031 30.4245 14.0371 30.5455 14.4238C30.6666 14.8066 30.7545 15.2285 30.8092 15.6895V16.0234C30.7545 16.4727 30.6666 16.8848 30.5455 17.2598C30.4245 17.6348 30.2623 17.9629 30.0592 18.2441C29.86 18.5215 29.6178 18.7363 29.3327 18.8887C29.0475 19.041 28.7135 19.1172 28.3307 19.1172C27.944 19.1172 27.5963 19.0371 27.2877 18.877C26.983 18.7168 26.7233 18.4922 26.5084 18.2031C26.2975 17.9141 26.1354 17.5742 26.0221 17.1836C25.9127 16.793 25.858 16.3672 25.858 15.9062ZM27.4108 15.7832V15.9062C27.4108 16.1797 27.4342 16.4355 27.4811 16.6738C27.528 16.9121 27.6041 17.123 27.7096 17.3066C27.8151 17.4863 27.9498 17.627 28.1139 17.7285C28.2819 17.8301 28.485 17.8809 28.7233 17.8809C29.028 17.8809 29.278 17.8145 29.4733 17.6816C29.6725 17.5449 29.8268 17.3594 29.9362 17.125C30.0455 16.8867 30.1159 16.6191 30.1471 16.3223V15.4023C30.1315 15.168 30.0905 14.9512 30.0241 14.752C29.9616 14.5527 29.8717 14.3809 29.7545 14.2363C29.6413 14.0918 29.5006 13.9785 29.3327 13.8965C29.1647 13.8145 28.9655 13.7734 28.735 13.7734C28.4967 13.7734 28.2936 13.8262 28.1256 13.9316C27.9577 14.0332 27.8209 14.1758 27.7155 14.3594C27.61 14.543 27.5319 14.7559 27.4811 14.998C27.4342 15.2402 27.4108 15.502 27.4108 15.7832Z" fill="white"/>
<path d="M12.6143 37.2031C12.6143 37.0371 12.5882 36.8906 12.5361 36.7637C12.4873 36.6335 12.3994 36.5163 12.2725 36.4121C12.1488 36.3079 11.9762 36.2087 11.7549 36.1143C11.5368 36.0199 11.2601 35.9238 10.9248 35.8262C10.5732 35.722 10.2559 35.6064 9.97266 35.4795C9.68945 35.3493 9.44694 35.2012 9.24512 35.0352C9.04329 34.8691 8.88867 34.6787 8.78125 34.4639C8.67383 34.249 8.62012 34.0033 8.62012 33.7266C8.62012 33.4499 8.67708 33.1943 8.79102 32.96C8.90495 32.7256 9.06771 32.5221 9.2793 32.3496C9.49414 32.1738 9.74967 32.0371 10.0459 31.9395C10.3421 31.8418 10.6725 31.793 11.0371 31.793C11.571 31.793 12.0234 31.8955 12.3945 32.1006C12.7689 32.3024 13.0537 32.5677 13.249 32.8965C13.4443 33.222 13.542 33.5703 13.542 33.9414H12.6045C12.6045 33.6745 12.5475 33.4385 12.4336 33.2334C12.3197 33.0251 12.1471 32.8623 11.916 32.7451C11.6849 32.6247 11.3919 32.5645 11.0371 32.5645C10.7018 32.5645 10.4251 32.6149 10.207 32.7158C9.98893 32.8167 9.82617 32.9535 9.71875 33.126C9.61458 33.2985 9.5625 33.4954 9.5625 33.7168C9.5625 33.8665 9.59342 34.0033 9.65527 34.127C9.72038 34.2474 9.81966 34.3597 9.95312 34.4639C10.0898 34.568 10.2624 34.6641 10.4707 34.752C10.6823 34.8398 10.9346 34.9245 11.2275 35.0059C11.6312 35.1198 11.9795 35.2467 12.2725 35.3867C12.5654 35.5267 12.8063 35.6846 12.9951 35.8604C13.1872 36.0329 13.3288 36.2298 13.4199 36.4512C13.5143 36.6693 13.5615 36.9167 13.5615 37.1934C13.5615 37.4831 13.5029 37.7451 13.3857 37.9795C13.2686 38.2139 13.1009 38.4141 12.8828 38.5801C12.6647 38.7461 12.4027 38.8747 12.0967 38.9658C11.7939 39.0537 11.4554 39.0977 11.0811 39.0977C10.7523 39.0977 10.4284 39.0521 10.1094 38.9609C9.79362 38.8698 9.50553 38.7331 9.24512 38.5508C8.98796 38.3685 8.78125 38.1439 8.625 37.877C8.47201 37.6068 8.39551 37.2943 8.39551 36.9395H9.33301C9.33301 37.1836 9.38021 37.3936 9.47461 37.5693C9.56901 37.7419 9.69759 37.8851 9.86035 37.999C10.0264 38.113 10.2135 38.1976 10.4219 38.2529C10.6335 38.305 10.8532 38.3311 11.0811 38.3311C11.4098 38.3311 11.6882 38.2855 11.916 38.1943C12.1439 38.1032 12.3164 37.973 12.4336 37.8037C12.554 37.6344 12.6143 37.4342 12.6143 37.2031ZM17.3896 31.8906V39H16.4619V31.8906H17.3896ZM19.6748 31.8906V32.6621H14.1816V31.8906H19.6748ZM25.2461 38.2334V39H21.4814V38.2334H25.2461ZM21.6719 31.8906V39H20.7295V31.8906H21.6719ZM24.748 34.9473V35.7139H21.4814V34.9473H24.748ZM25.1973 31.8906V32.6621H21.4814V31.8906H25.1973ZM29.0352 36.2119H27.1357V35.4453H29.0352C29.403 35.4453 29.7008 35.3867 29.9287 35.2695C30.1566 35.1523 30.3226 34.9896 30.4268 34.7812C30.5342 34.5729 30.5879 34.3353 30.5879 34.0684C30.5879 33.8242 30.5342 33.5947 30.4268 33.3799C30.3226 33.165 30.1566 32.9925 29.9287 32.8623C29.7008 32.7288 29.403 32.6621 29.0352 32.6621H27.3555V39H26.4131V31.8906H29.0352C29.5723 31.8906 30.0264 31.9834 30.3975 32.1689C30.7686 32.3545 31.0501 32.6117 31.2422 32.9404C31.4342 33.266 31.5303 33.6387 31.5303 34.0586C31.5303 34.5143 31.4342 34.9033 31.2422 35.2256C31.0501 35.5479 30.7686 35.7936 30.3975 35.9629C30.0264 36.1289 29.5723 36.2119 29.0352 36.2119Z" fill="white"/>
</svg>
