<svg width="136" height="120" viewBox="0 0 136 120" fill="none" xmlns="http://www.w3.org/2000/svg">
<g filter="url(#filter0_bd_136_2958)">
<circle cx="60" cy="60" r="50" fill="#060606" fill-opacity="0.67"/>
<circle cx="60" cy="60" r="48.7206" stroke="url(#paint0_linear_136_2958)" stroke-width="2.55882" style="mix-blend-mode:overlay"/>
</g>
<g clip-path="url(#clip0_136_2958)">
<path d="M79.4325 89.6522C76.2227 91.199 72.3558 91.9596 67.9861 91.9983H67.7928C56.5401 91.9983 46.0991 87.216 38.4426 79.5593C30.6311 71.6708 25.8488 60.9592 26.0036 49.6678C26.0423 45.4141 26.8029 41.6632 28.3111 38.531L34.3048 39.0337L43.8174 48.585L44.5522 54.7723L42.6187 56.203C42.1547 56.7829 42.0775 57.9816 42.8508 58.7551L51.0488 66.9531L59.2471 75.1511C59.9816 75.8859 61.2578 75.8859 61.9925 75.1511L63.2299 73.4497L69.4557 74.1845L78.9685 83.6974L79.4325 89.6522Z" fill="#FFD84D"/>
<path d="M79.4323 89.6522C76.2225 91.1991 72.3556 91.9596 67.986 91.9983H67.7926C56.5399 91.9983 46.0989 87.216 38.4424 79.5594L51.0485 66.953L59.2468 75.151C59.9813 75.8858 61.2575 75.8858 61.9922 75.151L63.2296 73.4496L69.4554 74.1844L78.9682 83.6972L79.4323 89.6522Z" fill="#F5AA6B"/>
<path d="M49.5975 42.7369L40.1774 33.3168C37.9003 31.0416 34.26 31.1624 31.6995 33.5887C30.9747 34.2777 29.2877 36.503 28.3118 38.5203L44.5587 54.7671C46.6163 53.2364 47.2113 52.7936 48.9612 51.4922C51.7926 49.3846 52.1037 45.243 49.5975 42.7369Z" fill="#F7BC14"/>
<path d="M84.7041 77.8436L76.1923 69.3318C72.7009 65.8404 68.597 66.2412 66.5079 69.043L63.245 73.4537L79.4427 89.6514C80.6855 89.0581 83.937 86.7884 84.3945 86.3215C86.8736 83.7912 87.0057 80.1453 84.7041 77.8436Z" fill="#F7BC14"/>
<path d="M68.7983 58.8713C68.7983 59.954 67.9476 60.8047 66.8648 60.8047C65.782 60.8047 64.9314 59.9538 64.9314 58.8713C64.9314 57.2471 64.2741 55.8162 63.2299 54.7723C62.1857 53.7281 60.7551 53.0709 59.131 53.0709C58.048 53.0709 57.1975 52.22 57.1975 51.1374C57.1975 50.0545 58.0482 49.204 59.131 49.204C61.7992 49.204 64.2354 50.2867 65.9756 52.0268C67.7155 53.7669 68.7983 56.2031 68.7983 58.8713Z" fill="#FCB33B"/>
<path d="M68.7981 58.8711C68.7981 59.9538 67.9474 60.8046 66.8646 60.8046C65.7818 60.8046 64.9312 59.9537 64.9312 58.8711C64.9312 57.2469 64.2739 55.8161 63.2297 54.7722L65.9754 52.0265C67.7153 53.7667 68.7981 56.2029 68.7981 58.8711Z" fill="#F69838"/>
<path d="M76.5322 58.8711C76.5322 59.9538 75.6816 60.8046 74.5988 60.8046C73.516 60.8046 72.6653 59.9537 72.6653 58.8711C72.6653 55.1588 71.1573 51.7558 68.6823 49.3196C66.2463 46.8448 62.8433 45.3368 59.131 45.3368C58.048 45.3368 57.1975 44.4859 57.1975 43.4033C57.1975 42.3204 58.0482 41.4698 59.131 41.4698C63.926 41.4698 68.257 43.4033 71.428 46.5743C74.5989 49.7452 76.5322 54.0761 76.5322 58.8711Z" fill="#FCB33B"/>
<path d="M76.5322 58.8712C76.5322 59.9539 75.6816 60.8047 74.5988 60.8047C73.516 60.8047 72.6653 59.9538 72.6653 58.8712C72.6653 55.1588 71.1572 51.7559 68.6823 49.3197L71.428 46.5742C74.5988 49.7453 76.5322 54.0762 76.5322 58.8712Z" fill="#F69838"/>
<path d="M84.2662 58.8712C84.2662 59.9539 83.4156 60.8047 82.3328 60.8047C81.2498 60.8047 80.3993 59.9538 80.3993 58.8712C80.3993 52.9932 78.0018 47.6957 74.1735 43.8287C70.3066 40.0004 65.0088 37.6029 59.131 37.6029C58.048 37.6029 57.1975 36.7522 57.1975 35.6694C57.1975 34.5866 58.0482 33.736 59.131 33.736C66.0527 33.736 72.3558 36.5587 76.8804 41.1218C81.4434 45.646 84.2662 51.9492 84.2662 58.8712Z" fill="#FCB33B"/>
<path d="M84.266 58.8713C84.266 59.954 83.4154 60.8047 82.3326 60.8047C81.2496 60.8047 80.3991 59.9538 80.3991 58.8713C80.3991 52.9933 78.0016 47.6958 74.1733 43.8287L76.8802 41.1218C81.4433 45.646 84.266 51.9493 84.266 58.8713Z" fill="#F69838"/>
<path d="M92.0001 58.8713C92.0001 59.954 91.1494 60.8048 90.0666 60.8048C88.9838 60.8048 88.1331 59.9538 88.1331 58.8713C88.1331 50.8666 84.8847 43.6354 79.6259 38.3764C74.367 33.1174 67.1356 29.8691 59.131 29.8691C58.048 29.8691 57.1975 29.0185 57.1975 27.9357C57.1975 26.8528 58.0482 26.0022 59.131 26.0022C68.1798 26.0022 76.4162 29.6758 82.3714 35.631C88.3265 41.5858 92.0001 49.8225 92.0001 58.8713Z" fill="#FCB33B"/>
<path d="M92.0001 58.8712C92.0001 59.9539 91.1494 60.8047 90.0666 60.8047C88.9838 60.8047 88.1331 59.9538 88.1331 58.8712C88.1331 50.8665 84.8847 43.6353 79.6259 38.3763L82.3716 35.6306C88.3265 41.5857 92.0001 49.8224 92.0001 58.8712Z" fill="#F69838"/>
</g>
<defs>
<filter id="filter0_bd_136_2958" x="-49.7059" y="-49.7059" width="219.412" height="219.412" filterUnits="userSpaceOnUse" color-interpolation-filters="sRGB">
<feFlood flood-opacity="0" result="BackgroundImageFix"/>
<feGaussianBlur in="BackgroundImageFix" stdDeviation="29.8529"/>
<feComposite in2="SourceAlpha" operator="in" result="effect1_backgroundBlur_136_2958"/>
<feColorMatrix in="SourceAlpha" type="matrix" values="0 0 0 0 0 0 0 0 0 0 0 0 0 0 0 0 0 0 127 0" result="hardAlpha"/>
<feOffset dy="1.02063"/>
<feGaussianBlur stdDeviation="12.7579"/>
<feColorMatrix type="matrix" values="0 0 0 0 0.269263 0 0 0 0 0.166562 0 0 0 0 0.4875 0 0 0 0.1 0"/>
<feBlend mode="normal" in2="effect1_backgroundBlur_136_2958" result="effect2_dropShadow_136_2958"/>
<feBlend mode="normal" in="SourceGraphic" in2="effect2_dropShadow_136_2958" result="shape"/>
</filter>
<linearGradient id="paint0_linear_136_2958" x1="15.3846" y1="25.5213" x2="49.9175" y2="100.643" gradientUnits="userSpaceOnUse">
<stop stop-color="#080808" stop-opacity="0.5"/>
<stop offset="0.352567" stop-opacity="0"/>
<stop offset="0.646925" stop-color="#020202" stop-opacity="0"/>
<stop offset="1" stop-opacity="0.54"/>
</linearGradient>
<clipPath id="clip0_136_2958">
<rect width="66" height="66" fill="white" transform="translate(26 26)"/>
</clipPath>
</defs>
</svg>
