<svg width="34" height="34" viewBox="0 0 34 34" fill="none" xmlns="http://www.w3.org/2000/svg">
<path d="M30.3477 5.3125H29.3516V2.98828C29.3516 1.34054 28.011 0 26.3633 0C24.7155 0 23.375 1.34054 23.375 2.98828V3.80408C23.375 4.8363 22.6819 5.7553 21.6893 6.03885L20.7188 6.31616V6.30859C20.7188 5.75848 20.2728 5.3125 19.7227 5.3125H15.7383C15.1882 5.3125 14.7422 5.75848 14.7422 6.30859V10.7578H2.98828C1.34054 10.7578 0 12.0984 0 13.7461V33.0039C0 33.3713 0.202207 33.7088 0.52607 33.8821C0.673359 33.961 0.834859 34 0.996027 34C1.18927 34 1.38198 33.9438 1.54859 33.8327L5.28209 31.3438H24.2383C25.886 31.3438 27.2266 30.0032 27.2266 28.3555V17.9297H30.3477C32.3616 17.9297 34 16.2912 34 14.2773V8.96484C34 6.95094 32.3616 5.3125 30.3477 5.3125ZM16.7344 7.30469H18.7266V15.9375H16.7344V7.30469ZM25.2344 28.3555C25.2344 28.9047 24.7875 29.3516 24.2383 29.3516H4.98047C4.78384 29.3516 4.59159 29.4098 4.42797 29.5189L1.99219 31.1427V13.7461C1.99219 13.1968 2.43904 12.75 2.98828 12.75H14.7422V16.9336C14.7422 17.4837 15.1882 17.9297 15.7383 17.9297H19.7227C20.2344 17.9297 20.6555 17.5436 20.7118 17.0469C21.5992 17.6129 22.6426 17.9297 23.7277 17.9297H25.2344V28.3555ZM32.0078 14.2773C32.0078 15.1928 31.2631 15.9375 30.3477 15.9375H23.7277C22.5166 15.9375 21.3855 15.3265 20.7188 14.3274V8.38811L22.2365 7.95447C24.0798 7.4278 25.3672 5.7211 25.3672 3.80408V2.98828C25.3672 2.43904 25.814 1.99219 26.3633 1.99219C26.9125 1.99219 27.3594 2.43904 27.3594 2.98828V6.30859C27.3594 6.8587 27.8054 7.30469 28.3555 7.30469H30.3477C31.2631 7.30469 32.0078 8.04943 32.0078 8.96484V14.2773Z" fill="#27D4FA"/>
<path d="M4.98047 18.7266H11.6211C12.1712 18.7266 12.6172 18.2806 12.6172 17.7305C12.6172 17.1804 12.1712 16.7344 11.6211 16.7344H4.98047C4.43036 16.7344 3.98438 17.1804 3.98438 17.7305C3.98438 18.2806 4.43036 18.7266 4.98047 18.7266Z" fill="#27D4FA"/>
<path d="M22.2461 20.7188H4.98047C4.43036 20.7188 3.98438 21.1647 3.98438 21.7148C3.98438 22.265 4.43036 22.7109 4.98047 22.7109H22.2461C22.7962 22.7109 23.2422 22.265 23.2422 21.7148C23.2422 21.1647 22.7962 20.7188 22.2461 20.7188Z" fill="#27D4FA"/>
<path d="M22.2461 24.7031H4.98047C4.43036 24.7031 3.98438 25.1491 3.98438 25.6992C3.98438 26.2493 4.43036 26.6953 4.98047 26.6953H22.2461C22.7962 26.6953 23.2422 26.2493 23.2422 25.6992C23.2422 25.1491 22.7962 24.7031 22.2461 24.7031Z" fill="#27D4FA"/>
</svg>
