<svg width="50" height="50" viewBox="0 0 50 50" fill="none" xmlns="http://www.w3.org/2000/svg">
<g clip-path="url(#clip0_409_24519)">
<path d="M26.543 17.2421C26.0437 17.1429 25.528 17.0898 25 17.0898C20.6383 17.0898 17.0898 20.6383 17.0898 25C17.0898 29.3617 20.6383 32.9102 25 32.9102C29.3617 32.9102 32.9102 29.3617 32.9102 25C32.9102 24.472 32.8571 23.9563 32.7579 23.457L28.1075 28.1075C27.2774 28.9375 26.1738 29.3945 25 29.3945C23.8262 29.3945 22.7226 28.9375 21.8925 28.1075C21.0625 27.2774 20.6055 26.1738 20.6055 25C20.6055 23.8262 21.0625 22.7226 21.8925 21.8925L26.543 17.2421Z" fill="#B5B5B5"/>
<path d="M47.7627 14.6667L44.611 17.8185C44.2955 18.1339 43.94 18.3956 43.5562 18.5986C44.2505 20.6062 44.6289 22.7596 44.6289 25C44.6289 35.8234 35.8234 44.6289 25 44.6289C14.1766 44.6289 5.37109 35.8234 5.37109 25C5.37109 14.1766 14.1766 5.37109 25 5.37109C27.2411 5.37109 29.3957 5.74989 31.4037 6.44455C31.6071 6.06041 31.8668 5.70335 32.1819 5.38864L35.3333 2.23732C32.1819 0.801086 28.6831 0 25 0C11.2148 0 0 11.2148 0 25C0 38.7852 11.2148 50 25 50C38.7852 50 50 38.7852 50 25C50 21.3169 49.1989 17.8181 47.7627 14.6667Z" fill="#B5B5B5"/>
<path d="M31.2218 12.5633L30.9547 9.39865C29.1042 8.6895 27.0969 8.30078 25 8.30078C15.7921 8.30078 8.30078 15.7921 8.30078 25C8.30078 34.2079 15.7921 41.6992 25 41.6992C34.2079 41.6992 41.6992 34.2079 41.6992 25C41.6992 22.9031 41.3105 20.8958 40.6013 19.0453L37.4367 18.7782L35.1139 21.1006C35.5824 22.3114 35.8398 23.6259 35.8398 25C35.8398 30.9772 30.9772 35.8398 25 35.8398C19.0228 35.8398 14.1602 30.9772 14.1602 25C14.1602 19.0228 19.0228 14.1602 25 14.1602C26.3741 14.1602 27.6886 14.4176 28.8994 14.8861L31.2218 12.5633Z" fill="#B5B5B5"/>
<path d="M33.8291 8.61933L34.2556 13.673L23.9643 23.9643C23.3921 24.5362 23.3921 25.4639 23.9643 26.0357C24.25 26.3218 24.625 26.4649 25 26.4649C25.375 26.4649 25.75 26.3218 26.0357 26.0357L36.327 15.7444L41.3807 16.1705C41.4219 16.174 41.4627 16.1759 41.5039 16.1759C41.8907 16.1759 42.2638 16.0225 42.5396 15.7467L48.7541 9.53181C49.1573 9.12897 49.2901 8.52854 49.0944 7.99296C48.8983 7.45737 48.4097 7.0843 47.8416 7.03661L43.3426 6.65705L42.9634 2.15838C42.9153 1.58999 42.5423 1.10133 42.0071 0.905631C41.4715 0.709556 40.871 0.842689 40.4678 1.24552L34.2533 7.46043C33.9481 7.7656 33.7929 8.18941 33.8291 8.61933Z" fill="#2AD5FA"/>
</g>
<defs>
<clipPath id="clip0_409_24519">
<rect width="50" height="50" fill="white"/>
</clipPath>
</defs>
</svg>
