<svg width="34" height="34" viewBox="0 0 34 34" fill="none" xmlns="http://www.w3.org/2000/svg">
<path d="M16.9988 5.09418C17.4397 5.09418 17.7983 4.73559 17.7983 4.29465C17.7983 3.85371 17.4397 3.49512 16.9988 3.49512C16.5578 3.49512 16.1992 3.85371 16.1992 4.29465C16.1992 4.73559 16.5578 5.09418 16.9988 5.09418Z" fill="#27D4FA"/>
<path d="M30.8498 3.33063H24.9194C24.376 3.33063 23.9262 2.92068 23.5557 2.52313C23.1945 2.12469 22.6738 1.90156 22.132 1.90156C21.5961 1.90156 21.1187 1.60031 20.7115 1.25201C20.7016 1.24352 20.6916 1.23514 20.6816 1.22688C19.9804 0.541563 19.0241 0.148438 18.0466 0.148438H15.9482C14.9436 0.148438 13.9927 0.556731 13.3083 1.23407C12.9304 1.608 12.4529 1.90156 11.9213 1.90156C10.4198 1.90156 8.9961 3.33063 7.49462 3.33063H3.15039C2.70945 3.33063 2.35352 3.68656 2.35352 4.1275V33.0541C2.35352 33.495 2.70945 33.8509 3.15039 33.8509H30.8498C31.2907 33.8509 31.6466 33.495 31.6466 33.0541V29.9781V20.6441V4.1275C31.6466 3.68656 31.2907 3.33063 30.8498 3.33063ZM11.5495 3.86188C11.5495 3.66 11.7195 3.49531 11.9213 3.49531H13.2654C13.4407 3.49531 13.6107 3.43688 13.7435 3.33063C13.8551 3.24563 13.9454 3.13406 13.9985 3.00125C14.3066 2.2575 15.1035 1.74219 15.9482 1.74219H18.0466C18.6151 1.74219 19.1782 1.97594 19.5873 2.385C19.6085 2.40625 19.6298 2.42219 19.651 2.44344C19.8316 2.58688 19.9857 2.83125 20.0495 2.99063C20.1026 3.12875 20.1982 3.24563 20.3098 3.33063C20.4426 3.43688 20.6126 3.49531 20.7879 3.49531H22.132C22.2276 3.49531 22.3179 3.5325 22.3816 3.59625C22.4715 3.70608 22.4454 3.86404 22.4454 4.00595V6.14094C22.4454 6.3375 22.2754 6.5075 22.0735 6.5075H11.9213C11.7195 6.5075 11.5495 6.3375 11.5495 6.14094V3.86188ZM30.0529 30.5944C30.0529 31.5127 29.3084 32.2572 28.3901 32.2572H7.94726C5.73812 32.2572 3.94727 30.4663 3.94727 28.2572V7.9286C3.94727 6.26941 5.2923 4.92438 6.95148 4.92438H8.73914C9.41103 4.92438 9.9557 5.46905 9.9557 6.14094C9.9557 7.21938 10.8376 8.10125 11.9213 8.10125H22.0735C23.1573 8.10125 24.0391 7.21938 24.0391 6.14094C24.0391 5.46905 24.5838 4.92438 25.2557 4.92438H27.046C28.7067 4.92438 30.0529 6.2706 30.0529 7.93125V25.4731V30.5944Z" fill="#27D4FA"/>
<path d="M15.0957 12.1807H21.85C22.2899 12.1807 22.6469 11.8242 22.6469 11.3838C22.6469 10.9434 22.2899 10.5869 21.85 10.5869H15.0957C14.6553 10.5869 14.2988 10.9434 14.2988 11.3838C14.2988 11.8242 14.6553 12.1807 15.0957 12.1807Z" fill="#27D4FA"/>
<path d="M27.1625 13.7363H15.0957C14.6553 13.7363 14.2988 14.0928 14.2988 14.5332C14.2988 14.9736 14.6553 15.3301 15.0957 15.3301H27.1625C27.6024 15.3301 27.9594 14.9736 27.9594 14.5332C27.9594 14.0928 27.6029 13.7363 27.1625 13.7363Z" fill="#27D4FA"/>
<path d="M15.0957 19.2393H21.85C22.2899 19.2393 22.6469 18.8828 22.6469 18.4424C22.6469 18.002 22.2899 17.6455 21.85 17.6455H15.0957C14.6553 17.6455 14.2988 18.002 14.2988 18.4424C14.2988 18.8828 14.6553 19.2393 15.0957 19.2393Z" fill="#27D4FA"/>
<path d="M27.1625 20.7949H15.0957C14.6553 20.7949 14.2988 21.1514 14.2988 21.5918C14.2988 22.0322 14.6553 22.3887 15.0957 22.3887H27.1625C27.6024 22.3887 27.9594 22.0322 27.9594 21.5918C27.9594 21.1514 27.6029 20.7949 27.1625 20.7949Z" fill="#27D4FA"/>
<path d="M15.0957 26.2969H21.85C22.2899 26.2969 22.6469 25.9404 22.6469 25.5C22.6469 25.0596 22.2899 24.7031 21.85 24.7031H15.0957C14.6553 24.7031 14.2988 25.0596 14.2988 25.5C14.2988 25.9404 14.6553 26.2969 15.0957 26.2969Z" fill="#27D4FA"/>
<path d="M27.1625 27.8525H15.0957C14.6553 27.8525 14.2988 28.209 14.2988 28.6494C14.2988 29.0898 14.6553 29.4463 15.0957 29.4463H27.1625C27.6024 29.4463 27.9594 29.0898 27.9594 28.6494C27.9594 28.209 27.6029 27.8525 27.1625 27.8525Z" fill="#27D4FA"/>
<path d="M9.01102 29.769C7.5113 29.769 6.29102 28.5487 6.29102 27.0495C6.29102 25.5504 7.5113 24.3301 9.01102 24.3301C10.5107 24.3301 11.731 25.5504 11.731 27.0495C11.731 28.5487 10.5107 29.769 9.01102 29.769ZM9.01102 25.9238C8.38999 25.9238 7.88477 26.4285 7.88477 27.0495C7.88477 27.6706 8.38999 28.1753 9.01102 28.1753C9.63205 28.1753 10.1373 27.6706 10.1373 27.0495C10.1373 26.4285 9.63205 25.9238 9.01102 25.9238Z" fill="#27D4FA"/>
<path d="M11.7052 10.9521C11.3625 10.6089 10.7213 10.6079 10.3776 10.9521L8.30733 13.0224L7.62945 12.3451C7.27883 11.9934 6.66683 11.9934 6.31355 12.3451C6.1377 12.5209 6.04102 12.7547 6.04102 13.0028C6.04102 13.2508 6.1377 13.4846 6.31355 13.6604L7.65495 15.0024C7.8308 15.1777 8.06455 15.2744 8.31264 15.2744C8.56977 15.2744 8.80883 15.1766 8.98627 14.9992L11.7047 12.2803C11.8821 12.1033 11.9804 11.8675 11.9804 11.6162C11.9799 11.3644 11.8821 11.1285 11.7052 10.9521Z" fill="#27D4FA"/>
<path d="M11.7052 17.9033C11.3625 17.5601 10.7213 17.559 10.3776 17.9033L8.30733 19.9736L7.62945 19.2962C7.27883 18.9445 6.66683 18.9445 6.31355 19.2962C6.1377 19.4721 6.04102 19.7058 6.04102 19.9539C6.04102 20.202 6.1377 20.4358 6.31355 20.6116L7.65495 21.9535C7.8308 22.1289 8.06455 22.2255 8.31264 22.2255C8.56977 22.2255 8.80883 22.1278 8.98627 21.9504L11.7047 19.2314C11.8821 19.0545 11.9804 18.8186 11.9804 18.5674C11.9799 18.315 11.8821 18.0791 11.7052 17.9033Z" fill="#27D4FA"/>
</svg>
