<svg width="30" height="30" viewBox="0 0 30 30" fill="none" xmlns="http://www.w3.org/2000/svg">
<path d="M18.8806 11.0793C19.9859 11.4322 20.9309 12.1593 21.561 13.1184C19.6498 13.4109 17.9932 14.6076 17.1087 16.3247H12.8899C12.0025 14.5992 10.3347 13.3996 8.41372 13.1141C9.05217 12.1466 10.0225 11.4604 11.1447 11.1102C13.4763 13.8482 16.5659 13.8243 18.8806 11.0779V11.0793ZM22.4764 13.6738C25.4634 13.6738 27.885 16.0954 27.885 19.0824C27.885 20.6363 27.2142 22.5305 26.1482 23.9523C25.1905 25.2292 23.9066 26.1419 22.475 26.1419C21.0434 26.1419 19.7595 25.2292 18.8019 23.9523C17.7359 22.5305 17.0651 20.6349 17.0651 19.0824C17.0651 16.0954 19.4867 13.6738 22.4736 13.6738H22.4764ZM3.69568 15.2587C5.8079 13.1465 9.23217 13.1465 11.3458 15.2587C12.3246 16.2375 12.9307 17.5903 12.9307 19.0838C12.9307 20.6377 12.2599 22.532 11.1939 23.9537C10.2363 25.2306 8.95232 26.1433 7.52074 26.1433C6.08915 26.1433 4.80523 25.2306 3.84756 23.9537C2.7816 22.532 2.11081 20.6377 2.11081 19.0838C2.11081 17.5903 2.71691 16.2375 3.69568 15.2587ZM11.3753 24.7271C13.4679 25.3797 14.9009 27.1473 14.9009 29.4733C14.9009 29.7321 14.6913 29.9416 14.4326 29.9416H0.608914C0.350159 29.9416 0.140625 29.7321 0.140625 29.4733C0.140625 27.2669 1.5933 25.3487 3.63943 24.6962C5.95275 27.4427 9.04373 27.4652 11.3753 24.7285V24.7271ZM26.3577 24.6948C28.4039 25.3473 29.8566 27.2655 29.8566 29.4719C29.8566 29.7307 29.647 29.9402 29.3883 29.9402H15.5646C15.3059 29.9402 15.0963 29.7307 15.0963 29.4719C15.0963 27.1459 16.5293 25.3782 18.6218 24.7257C20.9534 27.4637 24.043 27.4398 26.3577 24.6934V24.6948ZM11.1742 1.64178C13.2865 -0.470438 16.7107 -0.470438 18.8244 1.64178C19.8031 2.62055 20.4092 3.97338 20.4092 5.46684C20.4092 7.02077 19.7384 8.91502 18.6725 10.3368C17.7148 11.6137 16.4309 12.5263 14.9993 12.5263C13.5677 12.5263 12.2838 11.6137 11.3261 10.3368C10.2602 8.91502 9.58937 7.02077 9.58937 5.46684C9.58937 3.97338 10.1955 2.62055 11.1742 1.64178Z" fill="#27D4FA"/>
</svg>
