<svg width="50" height="50" viewBox="0 0 50 50" fill="none" xmlns="http://www.w3.org/2000/svg">
<path d="M40.8442 21.2144C39.6158 20.6102 38.2821 20.2496 36.9166 20.1525V18.9187C36.9155 18.7782 36.8767 18.6405 36.8043 18.52C36.7319 18.3995 36.6285 18.3006 36.505 18.2337C36.3814 18.1667 36.2421 18.1341 36.1016 18.1392C35.9612 18.1443 35.8246 18.187 35.7063 18.2628L29.7328 22.2452C29.6284 22.318 29.5432 22.415 29.4843 22.5278C29.4255 22.6406 29.3948 22.766 29.3948 22.8933C29.3948 23.0205 29.4255 23.1459 29.4844 23.2588C29.5432 23.3716 29.6285 23.4686 29.7328 23.5414L35.7063 27.5237C35.8241 27.5991 35.9599 27.6417 36.0997 27.6471C36.2395 27.6525 36.3782 27.6206 36.5015 27.5545C36.6248 27.4885 36.7283 27.3908 36.8012 27.2714C36.8742 27.152 36.914 27.0154 36.9166 26.8755V25.6965C37.7257 25.7648 38.5218 25.9434 39.2825 26.2275C40.7275 26.7534 42.0167 27.635 43.0307 28.791C44.0448 29.947 44.751 31.34 45.0842 32.8412C44.7148 34.5297 43.8694 36.077 42.648 37.2999C42.5748 37.3725 42.5167 37.4589 42.4771 37.5541C42.4375 37.6492 42.4171 37.7513 42.417 37.8544C42.417 37.9574 42.4374 38.0595 42.477 38.1547C42.5167 38.2498 42.5747 38.3362 42.6479 38.4089C42.721 38.4815 42.8078 38.5389 42.9033 38.5779C42.9987 38.6168 43.1009 38.6365 43.204 38.6357C43.3071 38.635 43.409 38.6138 43.5039 38.5735C43.5987 38.5332 43.6847 38.4745 43.7568 38.4009C44.9585 37.1918 45.8543 35.7134 46.3698 34.0885C46.8853 32.4637 47.0056 30.7392 46.7208 29.0585C46.436 27.3778 45.7542 25.7893 44.7321 24.425C43.71 23.0608 42.3772 21.9601 40.8442 21.2144Z" fill="#2AD5FA"/>
<path d="M34.1445 12.172H39.1653C38.3808 10.5843 37.3445 9.13396 36.0966 7.87734C34.8443 6.62437 33.3931 5.58742 31.8019 4.80859V9.82945C31.8038 10.4502 32.0511 11.045 32.4901 11.4839C32.929 11.9228 33.5238 12.1702 34.1445 12.172Z" fill="#28B1D1"/>
<path d="M13.0851 40.4227V41.6643C13.0869 41.8045 13.1262 41.9416 13.199 42.0614C13.2718 42.1812 13.3754 42.2793 13.499 42.3455C13.6226 42.4117 13.7616 42.4435 13.9017 42.4377C14.0418 42.4318 14.1777 42.3886 14.2954 42.3123L20.2689 38.3301C20.3732 38.2573 20.4585 38.1603 20.5173 38.0475C20.5762 37.9346 20.6069 37.8092 20.6069 37.682C20.6069 37.5547 20.5762 37.4293 20.5173 37.3165C20.4584 37.2036 20.3732 37.1067 20.2688 37.0339L14.2954 33.0516C14.177 32.9757 14.0405 32.933 13.9 32.9278C13.7595 32.9226 13.6202 32.9553 13.4966 33.0222C13.373 33.0892 13.2696 33.1881 13.1973 33.3086C13.1249 33.4291 13.0861 33.5669 13.0851 33.7074V34.8787C11.1418 34.7084 9.30298 33.9243 7.8347 32.6399C6.36642 31.3555 5.34474 29.6374 4.91743 27.734C5.2868 26.0455 6.13224 24.4982 7.35366 23.2753C7.42683 23.2027 7.4849 23.1163 7.52453 23.0211C7.56416 22.926 7.58457 22.8239 7.58458 22.7208C7.58459 22.6178 7.5642 22.5157 7.52459 22.4205C7.48497 22.3254 7.42692 22.239 7.35377 22.1663C7.28062 22.0937 7.19382 22.0363 7.09837 21.9973C7.00292 21.9584 6.90072 21.9387 6.79763 21.9395C6.69455 21.9402 6.59264 21.9614 6.49776 22.0017C6.40288 22.042 6.31692 22.1007 6.24483 22.1743C4.94289 23.4845 4.00171 25.109 3.51258 26.8901C3.02345 28.6712 3.003 30.5485 3.45319 32.3398C3.90339 34.1312 4.80895 35.7757 6.08203 37.114C7.3551 38.4522 8.95246 39.4387 10.7191 39.9776C11.4877 40.2179 12.2817 40.3673 13.0851 40.4227Z" fill="#2AD5FA"/>
<path d="M38.3768 27.5616C38.2681 27.9092 38.0803 28.2267 37.8281 28.4894C37.5759 28.752 37.2661 28.9525 36.9232 29.0751C36.5804 29.1978 36.2137 29.2391 35.8521 29.196C35.4906 29.1529 35.1439 29.0264 34.8395 28.8266L28.8661 24.8365C28.5465 24.6227 28.2846 24.3334 28.1035 23.9943C27.9223 23.6552 27.8276 23.2766 27.8276 22.8922C27.8276 22.5077 27.9223 22.1291 28.1035 21.79C28.2846 21.4509 28.5465 21.1616 28.8661 20.9479L34.8395 16.9655C35.1839 16.7421 35.5806 16.6127 35.9904 16.5899C36.4002 16.5672 36.8089 16.6519 37.1758 16.8358C37.5428 17.0197 37.8553 17.2963 38.0824 17.6382C38.3095 17.9801 38.4432 18.3754 38.4704 18.7849C39.2823 18.9467 40.0771 19.1846 40.8443 19.4955V19.3393C40.8433 17.4249 40.4995 15.5261 39.8292 13.7328H34.1446C33.1092 13.7324 32.1164 13.321 31.3843 12.5889C30.6522 11.8568 30.2408 10.8639 30.2404 9.82858V4.14399C28.4457 3.47989 26.5475 3.13886 24.6339 3.13672H13.0618C12.0264 3.13709 11.0336 3.54855 10.3015 4.28066C9.56937 5.01276 9.15791 6.00561 9.15753 7.04096V31.7001C9.89165 32.2909 10.7318 32.7361 11.6328 33.012C11.72 32.722 11.8636 32.4521 12.0552 32.2176C12.2468 31.9832 12.4827 31.7887 12.7494 31.6455C13.1229 31.4416 13.5448 31.3433 13.9699 31.3612C14.395 31.3791 14.8072 31.5124 15.1623 31.747L21.1357 35.7371C21.4552 35.9509 21.7172 36.2401 21.8983 36.5793C22.0795 36.9184 22.1742 37.2969 22.1742 37.6814C22.1742 38.0659 22.0795 38.4444 21.8983 38.7836C21.7172 39.1227 21.4552 39.4119 21.1357 39.6257L15.1623 43.608C14.8187 43.8377 14.4205 43.9724 14.0081 43.9984C13.5957 44.0244 13.1837 43.9407 12.8141 43.7559C12.4445 43.5711 12.1304 43.2917 11.9037 42.9462C11.677 42.6007 11.5458 42.2013 11.5235 41.7887C11.0965 41.7041 10.6743 41.5972 10.2585 41.4685C9.88372 41.3514 9.50888 41.2186 9.15753 41.0781V42.9599C9.15791 43.9953 9.56937 44.9881 10.3015 45.7202C11.0336 46.4524 12.0264 46.8638 13.0618 46.8642H36.9401C37.9754 46.8638 38.9683 46.4524 39.7004 45.7202C40.4325 44.9881 40.8439 43.9953 40.8443 42.9599V28.8734C40.2217 28.3643 39.5166 27.9656 38.7594 27.6944C38.6267 27.6475 38.5017 27.6085 38.3768 27.5616ZM14.6703 16.4111H31.6771C31.8823 16.414 32.0781 16.4976 32.2222 16.6437C32.3662 16.7898 32.447 16.9868 32.447 17.192C32.447 17.3972 32.3662 17.5942 32.2221 17.7403C32.078 17.8864 31.8822 17.97 31.6771 17.9728H14.6703C14.4651 17.9699 14.2693 17.8864 14.1252 17.7403C13.9812 17.5942 13.9004 17.3972 13.9004 17.192C13.9004 16.9868 13.9812 16.7898 14.1252 16.6437C14.2693 16.4976 14.4651 16.414 14.6703 16.4111ZM14.6703 25.2581C14.4651 25.2552 14.2693 25.1716 14.1252 25.0255C13.9812 24.8794 13.9004 24.6824 13.9004 24.4772C13.9004 24.272 13.9812 24.0751 14.1253 23.9289C14.2693 23.7828 14.4651 23.6993 14.6703 23.6964H26.2893C26.4945 23.6993 26.6903 23.7828 26.8343 23.929C26.9784 24.0751 27.0592 24.2721 27.0592 24.4773C27.0592 24.6825 26.9784 24.8794 26.8343 25.0255C26.6902 25.1717 26.4944 25.2552 26.2892 25.2581H14.6703ZM18.0123 32.5512C17.8071 32.5483 17.6113 32.4648 17.4672 32.3186C17.3232 32.1725 17.2424 31.9756 17.2424 31.7703C17.2424 31.5651 17.3232 31.3682 17.4673 31.2221C17.6113 31.076 17.8071 30.9924 18.0123 30.9895H35.3315C35.5367 30.9924 35.7325 31.076 35.8765 31.2221C36.0206 31.3682 36.1014 31.5652 36.1014 31.7704C36.1014 31.9756 36.0206 32.1725 35.8765 32.3187C35.7325 32.4648 35.5367 32.5483 35.3315 32.5512H18.0123ZM35.3315 39.8366H24.0326C23.8274 39.8336 23.6317 39.7501 23.4876 39.604C23.3435 39.4578 23.2628 39.2609 23.2628 39.0557C23.2628 38.8505 23.3435 38.6535 23.4876 38.5074C23.6317 38.3613 23.8275 38.2777 24.0327 38.2748H35.3315C35.5367 38.2777 35.7325 38.3613 35.8765 38.5074C36.0206 38.6535 36.1014 38.8505 36.1014 39.0557C36.1014 39.2609 36.0206 39.4579 35.8765 39.604C35.7325 39.7501 35.5367 39.8337 35.3315 39.8366Z" fill="#D9D9D9"/>
</svg>
