<svg width="50" height="50" viewBox="0 0 50 50" fill="none" xmlns="http://www.w3.org/2000/svg">
<g clip-path="url(#clip0_74_722)">
<path d="M50 14.6484V47.0703H35.1006C31.0063 47.0703 28.8531 49.8465 28.6338 50H21.3662C21.1437 49.8443 19.0213 47.0703 14.8994 47.0703H0V11.7188H2.92969V44.1406H14.9121C19.4904 44.1406 22.0389 46.7237 22.6738 47.0703H27.3262C27.9608 46.7238 30.51 44.1406 35.0879 44.1406H47.0703V14.6484H50Z" fill="#E2F1F1"/>
<path d="M20.5986 42.3799C18.8193 41.6104 16.8945 41.2109 14.9121 41.2109H5.85938V5.85938H8.78906V35.3516H13.1836C17.1758 35.3516 20.4414 38.4775 20.5986 42.3799Z" fill="#BCC8CA"/>
<path d="M35.0878 8.78906C31.9849 8.78906 28.9963 9.60195 26.3618 11.1563C26.4299 11.8218 26.4647 12.4984 26.4647 13.1836V44.0792C26.6609 43.9369 26.8853 43.7792 27.1408 43.6114C31.6639 40.5948 34.7804 41.2109 44.1405 41.2109V8.78906H35.0878Z" fill="#2AD5FA"/>
<path d="M23.5352 42.6758C23.5352 37.0218 18.8915 32.4219 13.1836 32.4219H11.7188V0C19.0421 0 23.5352 5.91416 23.5352 13.1836V42.6758Z" fill="#E2F1F1"/>
</g>
<defs>
<clipPath id="clip0_74_722">
<rect width="50" height="50" fill="white"/>
</clipPath>
</defs>
</svg>
