<svg width="50" height="50" viewBox="0 0 50 50" fill="none" xmlns="http://www.w3.org/2000/svg">
<path d="M17 23C18.3918 23 19.5156 26.3906 20.5 25.5L38 26.5C38.9844 25.6094 38 5.25923 38 4H17V23Z" fill="#2AD5FA"/>
<path d="M34.375 42.1875C34.375 41.3247 35.0747 40.625 35.9375 40.625H43.75V4.6875C43.75 2.10266 41.6473 0 39.0625 0H10.9375C8.35266 0 6.25 2.10266 6.25 4.6875V45.3125C6.25 47.8973 8.35266 50 10.9375 50H34.375V42.1875ZM19.9722 9.64734C21.0091 7.18375 23.6702 5.80359 26.3122 6.38266C28.3805 6.83047 30.0208 8.45172 30.49 10.5125C31.0736 13.0677 29.853 15.647 27.5206 16.7853C26.9759 17.0523 26.6502 17.5116 26.6502 18.0144V18.8162C26.6502 19.6791 25.9505 20.3787 25.0877 20.3787C24.2248 20.3787 23.5252 19.6791 23.5252 18.8162V18.0144C23.5252 16.3169 24.5308 14.7695 26.1489 13.9777C27.0125 13.5566 27.7466 12.5364 27.4428 11.2075C27.2452 10.337 26.5242 9.62594 25.6498 9.43594C24.2644 9.13531 23.2298 9.96469 22.8514 10.8603C22.5164 11.6561 21.6025 12.0298 20.8052 11.6934C20.0102 11.3592 19.6372 10.4431 19.9722 9.64734ZM26.5625 23.4375C26.5625 24.3005 25.863 25 25 25C24.137 25 23.4375 24.3005 23.4375 23.4375C23.4375 22.5745 24.1372 21.875 25 21.875C25.8628 21.875 26.5625 22.5745 26.5625 23.4375ZM20.3125 28.125H35.9375C36.8003 28.125 37.5 28.8247 37.5 29.6875C37.5 30.5503 36.8003 31.25 35.9375 31.25H20.3125C19.4497 31.25 18.75 30.5503 18.75 29.6875C18.75 28.8247 19.4497 28.125 20.3125 28.125ZM20.3125 34.375H35.9375C36.8003 34.375 37.5 35.0747 37.5 35.9375C37.5 36.8003 36.8003 37.5 35.9375 37.5H20.3125C19.4497 37.5 18.75 36.8003 18.75 35.9375C18.75 35.0747 19.4497 34.375 20.3125 34.375ZM15.625 43.75H14.0625C13.1997 43.75 12.5 43.0503 12.5 42.1875C12.5 41.3247 13.1997 40.625 14.0625 40.625H15.625C16.4878 40.625 17.1875 41.3247 17.1875 42.1875C17.1875 43.0503 16.4878 43.75 15.625 43.75ZM15.625 37.5H14.0625C13.1997 37.5 12.5 36.8003 12.5 35.9375C12.5 35.0747 13.1997 34.375 14.0625 34.375H15.625C16.4878 34.375 17.1875 35.0747 17.1875 35.9375C17.1875 36.8003 16.4878 37.5 15.625 37.5ZM15.625 31.25H14.0625C13.1997 31.25 12.5 30.5503 12.5 29.6875C12.5 28.8247 13.1997 28.125 14.0625 28.125H15.625C16.4878 28.125 17.1875 28.8247 17.1875 29.6875C17.1875 30.5503 16.4878 31.25 15.625 31.25ZM29.6875 43.75H20.3125C19.4497 43.75 18.75 43.0503 18.75 42.1875C18.75 41.3247 19.4497 40.625 20.3125 40.625H29.6875C30.5503 40.625 31.25 41.3247 31.25 42.1875C31.25 43.0503 30.5503 43.75 29.6875 43.75Z" fill="white"/>
<path d="M37.5 50C37.9142 50 38.3117 49.8352 38.6047 49.5422L43.2922 44.8547C43.5852 44.5617 43.75 44.1642 43.75 43.75H37.5V50Z" fill="#2AD5FA"/>
</svg>
